<svg width="206" height="56" viewBox="0 0 206 56" fill="none" xmlns="http://www.w3.org/2000/svg">
<g clip-path="url(#clip0_61_1187)">
<path d="M27.2907 55.9995C18.0087 55.974 9.72949 51.9947 4.31923 44.656C2.52721 42.2248 1.25656 39.6125 0.467383 36.7087C0.364819 36.3294 0.47593 35.786 0.686757 35.5172C0.897583 35.2483 1.30499 35.0049 1.78932 35.0049H52.6554C53.2081 35.0049 53.6611 35.1888 53.9004 35.52C54.117 35.8228 54.2537 36.4341 54.1226 36.8842C52.1198 43.8239 47.2509 49.6032 40.7865 52.9259C36.6013 55.0769 32.1027 56.0137 27.2936 55.9995H27.2907Z" fill="#FF724C"/>
<path d="M11.0542 11.7321C11.7608 10.9622 12.9745 10.4868 13.8491 11.0698C13.6525 12.1594 13.3164 13.2519 13.4332 14.5057C15.1198 13.9764 16.5471 13.1302 17.9802 12.1509C18.4389 11.8368 18.9403 11.633 19.5044 11.7207C21.4018 12.0122 23.2708 11.9528 25.0229 11.3019C24.5756 10.1726 23.7067 9.47636 22.7409 8.78579C23.0457 7.96785 23.8035 7.55181 24.6782 7.59426C26.7095 7.68766 28.4873 8.89617 29.4474 10.6877C30.9517 13.4981 30.4332 16.801 28.3164 19.1699C25.0286 22.8464 19.1796 24.1652 14.7181 22.3567C12.2993 21.3746 10.4645 19.4274 9.88331 16.9255C9.45026 15.0632 9.73516 13.1698 11.0542 11.7321Z" fill="#FF724C"/>
<path d="M47.7551 28.1954C45.5898 30.5021 46.1027 33.2049 43.2793 32.5313C41.3619 32.0728 39.7323 30.6945 38.7494 28.9369C38.5699 28.6143 38.6383 27.9464 38.8377 27.6435C39.4104 26.7746 41.3135 27.202 43.1255 25.9907C43.983 25.419 44.7038 24.7935 44.9545 23.6982C44.5101 23.7322 44.0599 23.8199 43.6212 23.9557C42.2708 24.3718 40.8092 23.9416 40.1141 22.7303C39.4787 21.6236 39.6468 20.0981 40.6867 19.1642C43.1938 16.9198 48.1682 16.3198 51.2736 17.7575C54.0087 19.0255 55.926 21.5529 55.9973 24.5925C56.0628 27.4256 53.7608 32.1096 50.4588 31.0964C49.5186 30.8077 48.6668 29.919 48.8805 28.8888C49.0144 28.2407 49.4389 27.6888 49.7465 26.9926C48.8918 27.1511 48.2936 27.6152 47.7551 28.1898V28.1954Z" fill="#FF724C"/>
<path d="M35.322 16.8066C37.53 14.7915 40.3676 14.0896 43.171 13.6764C40.889 13.1132 38.7779 13.6934 36.53 14.6019C37.6867 12.7877 39.2508 11.4632 41.0086 10.4245L43.9488 8.68673C40.644 9.25843 38.0599 11.3302 35.8776 13.3962C34.8519 14.367 35.0058 10.9028 34.9203 10.4556C34.0485 11.7009 34.7323 13.4557 34.3334 14.7547C33.7636 15.9632 32.53 16.8887 32.3363 18.5472C31.3049 15.4623 32.134 10.1981 34.3163 7.89143C34.6041 7.5886 35.2138 7.3735 35.6354 7.49803C35.9488 7.59143 36.2536 8.02445 36.587 8.45182L37.1311 7.34237C37.8776 5.81971 39.493 4.9763 41.1682 5.31593C41.7636 5.4348 42.1853 5.77159 42.3875 6.43104C44.1026 5.00177 46.5442 4.69045 48.567 5.76027C49.2565 6.12537 49.5271 6.89236 49.4018 7.6169C49.1682 8.96692 48.2337 9.88391 46.9915 10.5688C47.5072 10.8094 48.04 11.0132 48.3961 11.3217C48.9915 11.8396 48.6497 12.717 48.0457 13.0991C47.1169 13.6877 45.9915 13.7613 44.8462 13.8632C45.0514 14.067 45.2992 14.3047 45.3249 14.4972C45.4445 15.4368 43.8633 15.833 43.1539 16.0255C38.5642 17.251 37.7579 17.9812 34.0058 21.0576C33.4787 19.4501 34.1482 17.8821 35.3277 16.8038L35.322 16.8066Z" fill="#FF724C"/>
<path d="M6.42147 18.7652C2.87446 23.7408 8.9001 30.9493 14.0967 31.7758L16.5839 32.172C14.4955 32.7522 12.3588 32.7664 10.3104 32.2399C6.11377 31.1616 3.11093 27.6182 2.84312 23.3502C2.70067 21.0803 3.64654 18.8898 5.56107 17.7888C6.43571 17.285 7.19924 17.5426 7.69782 18.3096C10.1166 22.0398 13.2277 25.3681 17.1622 27.4682L19.6921 28.8182C19.9514 28.9569 20.2562 29.3814 20.2733 29.6248C20.2904 29.8682 20.0796 30.3607 19.8431 30.5588C18.7804 31.4588 17.3787 31.6824 15.9628 31.555C13.8545 31.3654 11.9799 30.3776 10.3616 29.0701C8.0511 27.1993 6.55252 24.7144 6.11093 21.7653C6.09953 20.752 6.23913 19.8152 6.42147 18.7624V18.7652ZM10.3445 24.0521C10.1878 23.3191 9.44996 23.087 8.87161 23.1011C8.70637 23.104 8.36449 23.3615 8.30466 23.5143C8.15366 23.8964 8.72916 24.6549 9.4699 24.6493C9.74625 24.6493 10.4015 24.321 10.3445 24.0521ZM11.3388 27.454C11.8659 27.3804 12.5098 26.5993 12.2534 26.1776C11.8802 25.7587 10.8431 25.9172 10.5098 26.3559C10.1565 26.8172 10.7178 27.5418 11.3388 27.454ZM14.7605 28.8833C14.9827 28.2521 14.4756 27.4399 13.8773 27.4908C13.3417 27.5389 13.2363 28.2804 13.4614 28.6823C13.5981 28.9229 13.8688 29.1833 14.0653 29.2314C14.2391 29.271 14.695 29.0701 14.7605 28.8833Z" fill="#FF724C"/>
<path d="M35.3276 29.3842C33.4815 32.5144 29.5271 33.4484 26.2308 32.571C23.8661 31.9427 22.5556 29.622 23.3704 27.2644C24.5983 23.7068 29.1254 22.1388 32.5926 23.4492C35.151 24.4172 36.7293 27.004 35.3276 29.3814V29.3842Z" fill="#FF724C"/>
<path d="M15.1793 10.4244C14.1679 10.1215 11.5639 9.84416 10.9229 8.63282C13.0568 7.75262 15.1878 7.71016 17.3616 7.84319C16.9599 7.02525 16.5183 6.23845 16.7348 5.41202C16.8573 4.9422 17.6408 4.98183 18.0055 5.17994C18.8117 5.62146 19.2533 6.38845 19.6835 7.24884C21.0909 6.01203 22.3075 4.84881 24.1593 4.20068C24.4756 5.77995 22.2704 8.11772 21.259 9.00358C22.2448 9.51302 23.0596 10.1102 23.9229 10.9734L18.0055 11.0725C16.8345 11.8423 15.6864 12.7536 14.3787 13.3593C14.1536 12.2414 14.6921 11.3357 15.1793 10.4272V10.4244Z" fill="#FF724C"/>
<path d="M32.151 2.16014C32.3561 3.70261 31.0171 4.8715 29.6781 4.93376C28.2194 5.00169 26.8632 3.94601 26.8946 2.42052C26.9202 1.05069 28.0684 0.0855803 29.3134 0.00633395C30.5584 -0.0729124 31.9601 0.730872 32.151 2.16014Z" fill="#FF724C"/>
<path d="M1.68679 31.3484C0.689634 31.3031 0.0486083 30.5729 0.00302425 29.7663C-0.0425598 28.9597 0.53009 28.2267 1.42183 28.0314C2.39334 27.8191 3.34775 28.5097 3.48735 29.3757C3.6583 30.4314 2.87482 31.4022 1.68679 31.3512V31.3484Z" fill="#FF724C"/>
</g>
<path d="M78.816 19.08V22.824H72.048V25.8H77.04V29.376H72.048V36H67.344V19.08H78.816ZM87.0611 36.168C85.7171 36.168 84.5091 35.888 83.4371 35.328C82.3811 34.768 81.5491 33.968 80.9411 32.928C80.3331 31.888 80.0291 30.664 80.0291 29.256C80.0291 27.864 80.3331 26.648 80.9411 25.608C81.5651 24.568 82.4051 23.768 83.4611 23.208C84.5331 22.648 85.7411 22.368 87.0851 22.368C88.4291 22.368 89.6291 22.648 90.6851 23.208C91.7571 23.768 92.5971 24.568 93.2051 25.608C93.8291 26.648 94.1411 27.864 94.1411 29.256C94.1411 30.648 93.8291 31.872 93.2051 32.928C92.5971 33.968 91.7571 34.768 90.6851 35.328C89.6131 35.888 88.4051 36.168 87.0611 36.168ZM87.0611 32.088C87.7171 32.088 88.2611 31.848 88.6931 31.368C89.1411 30.872 89.3651 30.168 89.3651 29.256C89.3651 28.344 89.1411 27.648 88.6931 27.168C88.2611 26.688 87.7251 26.448 87.0851 26.448C86.4451 26.448 85.9091 26.688 85.4771 27.168C85.0451 27.648 84.8291 28.344 84.8291 29.256C84.8291 30.184 85.0371 30.888 85.4531 31.368C85.8691 31.848 86.4051 32.088 87.0611 32.088ZM102.319 36.168C100.975 36.168 99.7669 35.888 98.6949 35.328C97.6389 34.768 96.8069 33.968 96.1989 32.928C95.5909 31.888 95.2869 30.664 95.2869 29.256C95.2869 27.864 95.5909 26.648 96.1989 25.608C96.8229 24.568 97.6629 23.768 98.7189 23.208C99.7909 22.648 100.999 22.368 102.343 22.368C103.687 22.368 104.887 22.648 105.943 23.208C107.015 23.768 107.855 24.568 108.463 25.608C109.087 26.648 109.399 27.864 109.399 29.256C109.399 30.648 109.087 31.872 108.463 32.928C107.855 33.968 107.015 34.768 105.943 35.328C104.871 35.888 103.663 36.168 102.319 36.168ZM102.319 32.088C102.975 32.088 103.519 31.848 103.951 31.368C104.399 30.872 104.623 30.168 104.623 29.256C104.623 28.344 104.399 27.648 103.951 27.168C103.519 26.688 102.983 26.448 102.343 26.448C101.703 26.448 101.167 26.688 100.735 27.168C100.303 27.648 100.087 28.344 100.087 29.256C100.087 30.184 100.295 30.888 100.711 31.368C101.127 31.848 101.663 32.088 102.319 32.088ZM110.545 29.256C110.545 27.864 110.793 26.648 111.289 25.608C111.801 24.568 112.497 23.768 113.377 23.208C114.257 22.648 115.233 22.368 116.305 22.368C117.169 22.368 117.937 22.552 118.609 22.92C119.297 23.272 119.833 23.76 120.217 24.384V18.24H124.945V36H120.217V34.128C119.849 34.752 119.329 35.248 118.657 35.616C117.985 35.984 117.193 36.168 116.281 36.168C115.209 36.168 114.233 35.888 113.353 35.328C112.489 34.768 111.801 33.968 111.289 32.928C110.793 31.872 110.545 30.648 110.545 29.256ZM120.241 29.256C120.241 28.392 120.001 27.712 119.521 27.216C119.057 26.72 118.481 26.472 117.793 26.472C117.089 26.472 116.505 26.72 116.041 27.216C115.577 27.696 115.345 28.376 115.345 29.256C115.345 30.12 115.577 30.808 116.041 31.32C116.505 31.816 117.089 32.064 117.793 32.064C118.481 32.064 119.057 31.816 119.521 31.32C120.001 30.824 120.241 30.136 120.241 29.256ZM139.097 19.08V22.824H132.329V25.8H137.321V29.376H132.329V36H127.625V19.08H139.097ZM143.454 21.288C142.622 21.288 141.95 21.064 141.438 20.616C140.942 20.152 140.694 19.576 140.694 18.888C140.694 18.184 140.942 17.6 141.438 17.136C141.95 16.672 142.622 16.44 143.454 16.44C144.27 16.44 144.926 16.672 145.422 17.136C145.934 17.6 146.19 18.184 146.19 18.888C146.19 19.576 145.934 20.152 145.422 20.616C144.926 21.064 144.27 21.288 143.454 21.288ZM145.782 22.536V36H141.078V22.536H145.782ZM157.269 22.416C158.821 22.416 160.053 22.936 160.965 23.976C161.877 25 162.333 26.392 162.333 28.152V36H157.629V28.776C157.629 28.008 157.429 27.408 157.029 26.976C156.629 26.528 156.093 26.304 155.421 26.304C154.717 26.304 154.165 26.528 153.765 26.976C153.365 27.408 153.165 28.008 153.165 28.776V36H148.461V22.536H153.165V24.456C153.581 23.848 154.141 23.36 154.845 22.992C155.549 22.608 156.357 22.416 157.269 22.416ZM164.146 29.256C164.146 27.864 164.394 26.648 164.89 25.608C165.402 24.568 166.098 23.768 166.978 23.208C167.858 22.648 168.834 22.368 169.906 22.368C170.77 22.368 171.538 22.552 172.21 22.92C172.898 23.272 173.434 23.76 173.818 24.384V18.24H178.546V36H173.818V34.128C173.45 34.752 172.93 35.248 172.258 35.616C171.586 35.984 170.794 36.168 169.882 36.168C168.81 36.168 167.834 35.888 166.954 35.328C166.09 34.768 165.402 33.968 164.89 32.928C164.394 31.872 164.146 30.648 164.146 29.256ZM173.842 29.256C173.842 28.392 173.602 27.712 173.122 27.216C172.658 26.72 172.082 26.472 171.394 26.472C170.69 26.472 170.106 26.72 169.642 27.216C169.178 27.696 168.946 28.376 168.946 29.256C168.946 30.12 169.178 30.808 169.642 31.32C170.106 31.816 170.69 32.064 171.394 32.064C172.082 32.064 172.658 31.816 173.122 31.32C173.602 30.824 173.842 30.136 173.842 29.256ZM194.091 29.112C194.091 29.48 194.067 29.848 194.019 30.216H185.115C185.163 30.952 185.363 31.504 185.715 31.872C186.083 32.224 186.547 32.4 187.107 32.4C187.891 32.4 188.451 32.048 188.787 31.344H193.803C193.595 32.272 193.187 33.104 192.579 33.84C191.987 34.56 191.235 35.128 190.323 35.544C189.411 35.96 188.403 36.168 187.299 36.168C185.971 36.168 184.787 35.888 183.747 35.328C182.723 34.768 181.915 33.968 181.323 32.928C180.747 31.888 180.459 30.664 180.459 29.256C180.459 27.848 180.747 26.632 181.323 25.608C181.899 24.568 182.699 23.768 183.723 23.208C184.763 22.648 185.955 22.368 187.299 22.368C188.627 22.368 189.803 22.64 190.827 23.184C191.851 23.728 192.651 24.512 193.227 25.536C193.803 26.544 194.091 27.736 194.091 29.112ZM189.291 27.936C189.291 27.36 189.099 26.912 188.715 26.592C188.331 26.256 187.851 26.088 187.275 26.088C186.699 26.088 186.227 26.248 185.859 26.568C185.491 26.872 185.251 27.328 185.139 27.936H189.291ZM200.72 24.912C201.248 24.144 201.888 23.536 202.64 23.088C203.392 22.64 204.2 22.416 205.064 22.416V27.432H203.744C202.72 27.432 201.96 27.632 201.464 28.032C200.968 28.432 200.72 29.128 200.72 30.12V36H196.016V22.536H200.72V24.912Z" fill="#FF724C"/>
<defs>
<clipPath id="clip0_61_1187">
<rect width="56" height="56" fill="white"/>
</clipPath>
</defs>
</svg>
